<?xml version="1.0"?>
<svg xmlns="http://www.w3.org/2000/svg" height="512px" viewBox="0 0 512 511" width="512px" class=""><g><path d="m452 .5h-392c-33.085938 0-60 26.914062-60 60v301c0 33.085938 26.914062 60 60 60h125.25l70.882812 90.632812 69.714844-90.632812h126.152344c33.085938 0 60-26.914062 60-60v-301c0-33.085938-26.914062-60-60-60zm20 361c0 11.027344-8.972656 20-20 20h-145.847656l-50.285156 65.367188-51.117188-65.367188h-144.75c-11.027344 0-20-8.972656-20-20v-301c0-11.027344 8.972656-20 20-20h392c11.027344 0 20 8.972656 20 20zm-236.976562-249c0-13.808594 11.191406-25 25-25 13.804687 0 25 11.191406 25 25s-11.195313 25-25 25c-13.808594 0-25-11.191406-25-25zm52.207031 177.363281 17.539062 35.949219-13.589843 6.628906c-6.773438 3.308594-14.050782 4.9375-21.292969 4.9375-10.144531 0-20.210938-3.195312-28.71875-9.453125-14.578125-10.722656-21.9375-28.496093-19.207031-46.382812.09375-.625.21875-1.246094.375-1.859375l15.875-63.148438c.328124-3.996094-1.984376-6.351562-3.449219-7.429687-1.546875-1.136719-4.75-2.757813-8.769531-.792969-13.601563 6.636719-16.402344 8-16.402344 8l-17.515625-35.960938c.007812-.003906 2.820312-1.375 16.375-7.988281 16.269531-7.9375 35.429687-6.203125 50.011719 4.519531 14.578124 10.71875 21.9375 28.492188 19.210937 46.378907-.097656.625-.222656 1.246093-.375 1.859375l-15.875 63.148437c-.328125 3.996094 1.984375 6.351563 3.445313 7.429688 1.550781 1.140625 4.75 2.757812 8.773437.792969zm0 0" data-original="#000000" class="active-path" data-old_color="#ffffff" fill="#ffffff"/></g> </svg>
