<?xml version="1.0"?>
<svg xmlns="http://www.w3.org/2000/svg" height="512px" viewBox="1 1 511.999 511.999" width="512px" class=""><g><path d="m302.058594 0c-115.761719 0-209.941406 94.179688-209.941406 209.941406 0 50.695313 18.0625 97.253906 48.089843 133.574219l-140.207031 140.207031 28.277344 28.277344 140.207031-140.210938c36.320313 30.027344 82.878906 48.09375 133.574219 48.09375 115.761718 0 209.941406-94.179687 209.941406-209.941406 0-115.761718-94.179688-209.941406-209.941406-209.941406zm0 379.894531c-93.710938 0-169.953125-76.242187-169.953125-169.953125 0-93.710937 76.242187-169.953125 169.953125-169.953125 93.710937 0 169.953125 76.242188 169.953125 169.953125 0 93.710938-76.242188 169.953125-169.953125 169.953125zm19.992187-169.953125c0 11.042969-8.949219 19.996094-19.992187 19.996094-11.042969 0-19.996094-8.953125-19.996094-19.996094 0-11.042968 8.953125-19.996094 19.996094-19.996094 11.042968 0 19.992187 8.953126 19.992187 19.996094zm-79.976562 0c0 11.042969-8.953125 19.996094-19.996094 19.996094s-19.992187-8.953125-19.992187-19.996094c0-11.042968 8.949218-19.996094 19.992187-19.996094s19.996094 8.953126 19.996094 19.996094zm159.957031 0c0 11.042969-8.953125 19.996094-19.996094 19.996094-11.042968 0-19.996094-8.953125-19.996094-19.996094 0-11.042968 8.953126-19.996094 19.996094-19.996094 11.042969 0 19.996094 8.953126 19.996094 19.996094zm0 0" data-original="#000000" class="active-path" data-old_color="#FDFBFB" fill="#FFFFFF"/></g> </svg>
